<svg width="180" height="36" viewBox="0 0 180 36" fill="none" xmlns="http://www.w3.org/2000/svg">
<path d="M17.0489 3.67705C17.3483 2.75574 18.6517 2.75574 18.9511 3.67705L21.6484 11.9785C21.7822 12.3905 22.1662 12.6695 22.5994 12.6695H31.328C32.2968 12.6695 32.6995 13.9091 31.9158 14.4785L24.8542 19.609C24.5037 19.8637 24.3571 20.315 24.4909 20.7271L27.1882 29.0285C27.4876 29.9498 26.4331 30.7159 25.6494 30.1465L18.5878 25.016C18.2373 24.7613 17.7627 24.7613 17.4122 25.016L10.3506 30.1465C9.56689 30.7159 8.51241 29.9498 8.81176 29.0285L11.5091 20.7271C11.6429 20.315 11.4963 19.8637 11.1458 19.609L4.08417 14.4785C3.30046 13.9091 3.70323 12.6695 4.67196 12.6695H13.4006C13.8338 12.6695 14.2178 12.3905 14.3516 11.9785L17.0489 3.67705Z" fill="#FFCC47"/>
<path d="M53.0489 3.67705C53.3483 2.75574 54.6517 2.75574 54.9511 3.67705L57.6484 11.9785C57.7822 12.3905 58.1662 12.6695 58.5994 12.6695H67.328C68.2968 12.6695 68.6995 13.9091 67.9158 14.4785L60.8542 19.609C60.5037 19.8637 60.3571 20.315 60.4909 20.7271L63.1882 29.0285C63.4876 29.9498 62.4331 30.7159 61.6494 30.1465L54.5878 25.016C54.2373 24.7613 53.7627 24.7613 53.4122 25.016L46.3506 30.1465C45.5669 30.7159 44.5124 29.9498 44.8118 29.0285L47.5091 20.7271C47.6429 20.315 47.4963 19.8637 47.1458 19.609L40.0842 14.4785C39.3005 13.9091 39.7032 12.6695 40.672 12.6695H49.4006C49.8338 12.6695 50.2178 12.3905 50.3516 11.9785L53.0489 3.67705Z" fill="#FFCC47"/>
<path d="M89.0489 3.67705C89.3483 2.75574 90.6517 2.75574 90.9511 3.67705L93.6484 11.9785C93.7822 12.3905 94.1662 12.6695 94.5994 12.6695H103.328C104.297 12.6695 104.7 13.9091 103.916 14.4785L96.8542 19.609C96.5037 19.8637 96.3571 20.315 96.4909 20.7271L99.1882 29.0285C99.4876 29.9498 98.4331 30.7159 97.6494 30.1465L90.5878 25.016C90.2373 24.7613 89.7627 24.7613 89.4122 25.016L82.3506 30.1465C81.5669 30.7159 80.5124 29.9498 80.8118 29.0285L83.5091 20.7271C83.6429 20.315 83.4963 19.8637 83.1458 19.609L76.0842 14.4785C75.3005 13.9091 75.7032 12.6695 76.672 12.6695H85.4006C85.8338 12.6695 86.2178 12.3905 86.3516 11.9785L89.0489 3.67705Z" fill="#FFCC47"/>
<path d="M125.049 3.67705C125.348 2.75574 126.652 2.75574 126.951 3.67705L129.648 11.9785C129.782 12.3905 130.166 12.6695 130.599 12.6695H139.328C140.297 12.6695 140.7 13.9091 139.916 14.4785L132.854 19.609C132.504 19.8637 132.357 20.315 132.491 20.7271L135.188 29.0285C135.488 29.9498 134.433 30.7159 133.649 30.1465L126.588 25.016C126.237 24.7613 125.763 24.7613 125.412 25.016L118.351 30.1465C117.567 30.7159 116.512 29.9498 116.812 29.0285L119.509 20.7271C119.643 20.315 119.496 19.8637 119.146 19.609L112.084 14.4785C111.3 13.9091 111.703 12.6695 112.672 12.6695H121.401C121.834 12.6695 122.218 12.3905 122.352 11.9785L125.049 3.67705Z" fill="#FFCC47"/>
<path d="M161.049 3.67705C161.348 2.75574 162.652 2.75574 162.951 3.67705L165.648 11.9785C165.782 12.3905 166.166 12.6695 166.599 12.6695H175.328C176.297 12.6695 176.7 13.9091 175.916 14.4785L168.854 19.609C168.504 19.8637 168.357 20.315 168.491 20.7271L171.188 29.0285C171.488 29.9498 170.433 30.7159 169.649 30.1465L162.588 25.016C162.237 24.7613 161.763 24.7613 161.412 25.016L154.351 30.1465C153.567 30.7159 152.512 29.9498 152.812 29.0285L155.509 20.7271C155.643 20.315 155.496 19.8637 155.146 19.609L148.084 14.4785C147.3 13.9091 147.703 12.6695 148.672 12.6695H157.401C157.834 12.6695 158.218 12.3905 158.352 11.9785L161.049 3.67705Z" fill="#FFCC47"/>
</svg>
