<svg width="48" height="48" fill="none" xmlns="http://www.w3.org/2000/svg"><path d="M41 21V7.15a2 2 0 00-.697-1.518l-1.84-1.578a2 2 0 00-2.515-.072L33 6.23" stroke="#FF498B" stroke-width="3" stroke-linecap="round"/><path d="M1.5 25A2.5 2.5 0 014 22.5h40a2.5 2.5 0 012.5 2.5v2a2.5 2.5 0 01-2.5 2.5H4A2.5 2.5 0 011.5 27v-2zm4 4.5h37V39a3.5 3.5 0 01-3.5 3.5H9A3.5 3.5 0 015.5 39v-9.5z" stroke="#152C5B" stroke-width="3"/><path d="M37 43v3m-26-3v3" stroke="#152C5B" stroke-width="3" stroke-linecap="round"/></svg>