<svg width="48" height="48" fill="none" xmlns="http://www.w3.org/2000/svg"><path d="M30.5 40.5c0 1.146-1.048 2.645-3.823 3.945C24.022 45.69 20.25 46.5 16 46.5s-8.022-.81-10.677-2.055c-2.775-1.3-3.823-2.8-3.823-3.945 0-1.146 1.048-2.645 3.823-3.945C7.978 35.31 11.75 34.5 16 34.5s8.022.81 10.677 2.055c2.775 1.3 3.823 2.8 3.823 3.945z" stroke="#152C5B" stroke-width="3"/><path d="M28.5 13.395c0 3.434-1.497 10.258-3.986 16.252-1.239 2.983-2.681 5.656-4.228 7.555C18.701 39.148 17.244 40 16 40c-1.245 0-2.701-.852-4.286-2.798-1.547-1.9-2.99-4.572-4.228-7.555C4.996 23.653 3.5 16.829 3.5 13.395 3.5 6.887 9.033 1.5 16 1.5s12.5 5.387 12.5 11.895z" fill="#fff" stroke="#152C5B" stroke-width="3"/><circle cx="16" cy="14" r="4.5" stroke="#FF498B" stroke-width="3"/></svg>