<svg width="48" height="48" fill="none" xmlns="http://www.w3.org/2000/svg"><mask id="a" fill="#fff"><path fill-rule="evenodd" clip-rule="evenodd" d="M18.354 6a2 2 0 00-1.857 1.257L15 11H8a8 8 0 00-8 8v14a8 8 0 008 8h32a8 8 0 008-8V19a8 8 0 00-8-8h-7l-1.497-3.743A2 2 0 0029.646 6H18.354z"/></mask><path d="M16.497 7.257l2.785 1.114-2.785-1.114zM15 11v3h2.031l.754-1.886L15 11zm18 0l-2.785 1.114.754 1.886H33v-3zm-1.497-3.743l-2.785 1.114 2.785-1.114zm-12.22 1.114a1 1 0 01-.929.629V3a5 5 0 00-4.642 3.143l5.57 2.228zm-1.498 3.743l1.497-3.743-5.57-2.228-1.497 3.743 5.57 2.228zM8 14h7V8H8v6zm-5 5a5 5 0 015-5V8C1.925 8-3 12.925-3 19h6zm0 14V19h-6v14h6zm5 5a5 5 0 01-5-5h-6c0 6.075 4.925 11 11 11v-6zm32 0H8v6h32v-6zm5-5a5 5 0 01-5 5v6c6.075 0 11-4.925 11-11h-6zm0-14v14h6V19h-6zm-5-5a5 5 0 015 5h6c0-6.075-4.925-11-11-11v6zm-7 0h7V8h-7v6zm-4.282-5.629l1.497 3.743 5.57-2.228-1.497-3.743-5.57 2.228zm.928.629a1 1 0 01-.928-.629l5.57-2.228A5 5 0 0029.646 3v6zM18.354 9h11.292V3H18.354v6z" fill="#152C5B" mask="url(#a)"/><circle cx="24" cy="26" r="6.5" stroke="#FF498B" stroke-width="3"/><path d="M40 18h-6" stroke="#152C5B" stroke-width="3" stroke-linecap="round"/></svg>