<svg width="48" height="48" fill="none" xmlns="http://www.w3.org/2000/svg"><path fill="#fff" d="M0 0h48v48H0z"/><path d="M1.5 8A2.5 2.5 0 014 5.5h40A2.5 2.5 0 0146.5 8v14a2.5 2.5 0 01-2.5 2.5H4A2.5 2.5 0 011.5 22V8z" stroke="#152C5B" stroke-width="3"/><path d="M46 19H2m38.5 10l-.409.483a10 10 0 00-.43 12.373L40.5 43M8 29l.409.483a10 10 0 01.43 12.373L8 43m25.5-14l-.409.483a10 10 0 00-.43 12.373L33.5 43M15 29l.409.483a10 10 0 01.43 12.373L15 43" stroke="#152C5B" stroke-width="3" stroke-linecap="round"/><path d="M28 12h-8" stroke="#FF498B" stroke-width="3" stroke-linecap="round"/></svg>