<svg width="48" height="48" fill="none" xmlns="http://www.w3.org/2000/svg"><path d="M15.993 13l.01 6m14.99-6l.01 6" stroke="#152C5B" stroke-width="3" stroke-linecap="round"/><mask id="a" fill="#fff"><path d="M16 14a4 4 0 01-4-4V5a1 1 0 011-1h6a1 1 0 011 1v5a4 4 0 01-4 4z"/></mask><path d="M16 14a4 4 0 01-4-4V5a1 1 0 011-1h6a1 1 0 011 1v5a4 4 0 01-4 4z" stroke="#FF498B" stroke-width="6" mask="url(#a)"/><mask id="b" fill="#fff"><path d="M31 14a4 4 0 01-4-4V5a1 1 0 011-1h6a1 1 0 011 1v5a4 4 0 01-4 4z"/></mask><path d="M31 14a4 4 0 01-4-4V5a1 1 0 011-1h6a1 1 0 011 1v5a4 4 0 01-4 4z" stroke="#FF498B" stroke-width="6" mask="url(#b)"/><path d="M6.236 20.882A2.5 2.5 0 018.472 19.5h31.056a2.5 2.5 0 012.236 1.382l2 4c.831 1.662-.378 3.618-2.236 3.618H6.472c-1.858 0-3.067-1.956-2.236-3.618l2-4z" stroke="#152C5B" stroke-width="3"/><mask id="c" fill="#fff"><path d="M9 46a4 4 0 004-4V28a1 1 0 00-1-1H6a1 1 0 00-1 1v14a4 4 0 004 4z"/></mask><path d="M9 46a4 4 0 004-4V28a1 1 0 00-1-1H6a1 1 0 00-1 1v14a4 4 0 004 4z" stroke="#152C5B" stroke-width="6" mask="url(#c)"/><mask id="d" fill="#fff"><path d="M39 46a4 4 0 01-4-4V28a1 1 0 011-1h6a1 1 0 011 1v14a4 4 0 01-4 4z"/></mask><path d="M39 46a4 4 0 01-4-4V28a1 1 0 011-1h6a1 1 0 011 1v14a4 4 0 01-4 4z" stroke="#152C5B" stroke-width="6" mask="url(#d)"/></svg>