<svg width="48" height="48" fill="none" xmlns="http://www.w3.org/2000/svg"><path d="M12.5 18a2.5 2.5 0 012.5-2.5h4a2.5 2.5 0 012.5 2.5v6.5h-9V18zm13 0a2.5 2.5 0 012.5-2.5h4a2.5 2.5 0 012.5 2.5v6.5h-9V18z" stroke="#FF498B" stroke-width="3"/><path d="M7.5 11A8.5 8.5 0 0116 2.5h15a8.5 8.5 0 018.5 8.5v13.5h-32V11z" stroke="#152C5B" stroke-width="3"/><mask id="a" fill="#fff"><path d="M0 27a4 4 0 014-4h40a4 4 0 014 4v10a2 2 0 01-2 2H2a2 2 0 01-2-2V27z"/></mask><path d="M0 27a4 4 0 014-4h40a4 4 0 014 4v10a2 2 0 01-2 2H2a2 2 0 01-2-2V27z" stroke="#152C5B" stroke-width="6" mask="url(#a)"/><path d="M43 42H6m37-4v8M5 38v8" stroke="#152C5B" stroke-width="3" stroke-linecap="round"/></svg>