<svg width="145" height="28" fill="none" xmlns="http://www.w3.org/2000/svg"><path d="M12.858 16.112a5.11 5.11 0 01-.65 2.522c-.433.763-1.092 1.378-1.976 1.846-.884.468-1.967.702-3.25.702-1.248 0-2.366-.217-3.354-.65-.988-.45-1.777-1.075-2.366-1.872-.59-.797-.927-1.716-1.014-2.756H3.42a3.28 3.28 0 001.014 2.054c.607.572 1.413.858 2.418.858.901 0 1.595-.243 2.08-.728.503-.485.754-1.11.754-1.872 0-.659-.182-1.196-.546-1.612a3.76 3.76 0 00-1.352-1.014c-.537-.243-1.274-.52-2.21-.832-1.144-.364-2.08-.728-2.808-1.092A5.117 5.117 0 01.95 10.08C.447 9.387.196 8.477.196 7.35c0-.988.243-1.855.728-2.6.485-.745 1.179-1.317 2.08-1.716.901-.416 1.941-.624 3.12-.624 1.872 0 3.354.45 4.446 1.352 1.11.901 1.742 2.08 1.898 3.536H9.27a3.03 3.03 0 00-.988-1.768c-.52-.503-1.24-.754-2.158-.754-.832 0-1.5.217-2.002.65-.503.416-.754 1.023-.754 1.82 0 .624.173 1.144.52 1.56.347.399.78.72 1.3.962.537.225 1.265.494 2.184.806 1.161.364 2.106.737 2.834 1.118a4.91 4.91 0 011.872 1.612c.52.71.78 1.647.78 2.808zm10.17 2.314V21h-1.82c-1.526 0-2.687-.364-3.485-1.092-.78-.745-1.17-1.976-1.17-3.692v-7.02H14.5V6.674h2.054V3.112h2.99v3.562h3.458v2.522h-3.458v7.072c0 .815.148 1.378.442 1.69.312.312.85.468 1.612.468h1.43zM31.55 6.492c1.3 0 2.41.32 3.328.962a5.178 5.178 0 011.95 2.548V6.674h2.964V21h-2.964v-3.328a5.178 5.178 0 01-1.95 2.548c-.919.641-2.028.962-3.328.962-1.248 0-2.366-.295-3.354-.884-.97-.59-1.734-1.439-2.288-2.548-.555-1.11-.832-2.418-.832-3.926 0-1.49.277-2.79.832-3.9.554-1.11 1.317-1.959 2.288-2.548.988-.59 2.106-.884 3.354-.884zm.91 2.6c-1.318 0-2.375.425-3.172 1.274-.78.832-1.17 1.985-1.17 3.458s.39 2.635 1.17 3.484c.797.832 1.854 1.248 3.172 1.248.832 0 1.577-.19 2.236-.572a4.25 4.25 0 001.56-1.664c.381-.71.572-1.543.572-2.496 0-.936-.19-1.76-.572-2.47-.382-.728-.902-1.283-1.56-1.664-.659-.399-1.404-.598-2.236-.598zm12.579-2.418l4.29 10.53 3.978-10.53h3.302L47.95 27.812h-3.302l3.094-7.15L41.71 6.674h3.328z" fill="#3252DF"/><path d="M64.928 6.492c1.854 0 3.388.494 4.602 1.482 1.213.97 1.967 2.297 2.262 3.978h-3.146c-.174-.901-.598-1.603-1.274-2.106-.659-.52-1.491-.78-2.496-.78-1.144 0-2.098.407-2.86 1.222-.763.797-1.144 1.976-1.144 3.536s.381 2.747 1.144 3.562c.762.815 1.716 1.222 2.86 1.222 1.005 0 1.837-.26 2.496-.78.676-.52 1.1-1.23 1.274-2.132h3.146c-.295 1.681-1.049 3.016-2.262 4.004-1.214.988-2.748 1.482-4.602 1.482-1.387 0-2.618-.295-3.692-.884-1.058-.59-1.89-1.439-2.496-2.548-.607-1.11-.91-2.418-.91-3.926 0-1.49.303-2.79.91-3.9.606-1.11 1.438-1.959 2.496-2.548 1.074-.59 2.305-.884 3.692-.884zm15.473 0c1.3 0 2.41.32 3.328.962a5.177 5.177 0 011.95 2.548V6.674h2.964V21H85.68v-3.328a5.177 5.177 0 01-1.95 2.548c-.918.641-2.028.962-3.328.962-1.248 0-2.366-.295-3.354-.884-.97-.59-1.733-1.439-2.288-2.548-.554-1.11-.832-2.418-.832-3.926 0-1.49.278-2.79.832-3.9.555-1.11 1.318-1.959 2.288-2.548.988-.59 2.106-.884 3.354-.884zm.91 2.6c-1.317 0-2.374.425-3.172 1.274-.78.832-1.17 1.985-1.17 3.458s.39 2.635 1.17 3.484c.798.832 1.855 1.248 3.172 1.248.832 0 1.578-.19 2.236-.572a4.248 4.248 0 001.56-1.664c.382-.71.572-1.543.572-2.496 0-.936-.19-1.76-.572-2.47-.381-.728-.901-1.283-1.56-1.664-.658-.399-1.404-.598-2.236-.598zm18.091 9.334V21h-1.82c-1.525 0-2.686-.364-3.484-1.092-.78-.745-1.17-1.976-1.17-3.692v-7.02h-2.054V6.674h2.054V3.112h2.99v3.562h3.458v2.522h-3.458v7.072c0 .815.148 1.378.442 1.69.312.312.85.468 1.612.468h1.43zm2.361-15.912c0-.503.173-.919.52-1.248.346-.33.806-.494 1.378-.494.572 0 1.031.165 1.378.494.364.33.546.745.546 1.248s-.182.91-.546 1.222c-.347.312-.806.468-1.378.468-.572 0-1.032-.156-1.378-.468-.347-.312-.52-.72-.52-1.222zm3.38 4.16V21h-2.964V6.674h2.964zm10.139-.182c1.386 0 2.634.295 3.744.884a6.347 6.347 0 012.6 2.548c.624 1.11.936 2.41.936 3.9 0 1.508-.312 2.817-.936 3.926a6.347 6.347 0 01-2.6 2.548c-1.11.59-2.358.884-3.744.884-1.387 0-2.635-.295-3.744-.884a6.564 6.564 0 01-2.6-2.548c-.624-1.127-.936-2.435-.936-3.926 0-1.49.312-2.79.936-3.9.641-1.11 1.508-1.959 2.6-2.548 1.109-.59 2.357-.884 3.744-.884zm0 2.574c-.763 0-1.465.173-2.106.52-.642.347-1.162.884-1.56 1.612-.382.71-.572 1.586-.572 2.626 0 1.057.19 1.941.572 2.652.398.71.918 1.24 1.56 1.586.641.347 1.343.52 2.106.52.762 0 1.464-.173 2.106-.52.641-.347 1.152-.875 1.534-1.586.398-.71.598-1.595.598-2.652 0-1.04-.2-1.915-.598-2.626-.382-.728-.893-1.265-1.534-1.612a4.361 4.361 0 00-2.106-.52zm18.137-2.626c1.664 0 2.999.537 4.004 1.612 1.006 1.075 1.508 2.609 1.508 4.602V21h-2.964v-8.034c0-1.283-.329-2.27-.988-2.964-.658-.71-1.56-1.066-2.704-1.066-1.178 0-2.123.381-2.834 1.144-.71.745-1.066 1.846-1.066 3.302V21h-2.964V6.674h2.964V9.82c.382-1.075 1.023-1.907 1.924-2.496.902-.59 1.942-.884 3.12-.884zm11.319 11.284V21h-3.354v-3.276h3.354z" fill="#152C5B"/></svg>