<svg width="180" height="36" fill="none" xmlns="http://www.w3.org/2000/svg"><path d="M17.049 3.677c.3-.921 1.603-.921 1.902 0l2.697 8.302a1 1 0 00.951.69h8.729c.969 0 1.372 1.24.588 1.81l-7.062 5.13a1 1 0 00-.363 1.118l2.697 8.302c.3.92-.755 1.687-1.539 1.117l-7.061-5.13a1 1 0 00-1.176 0l-7.061 5.13c-.784.57-1.839-.196-1.54-1.117l2.698-8.302a1 1 0 00-.363-1.118l-7.062-5.13c-.784-.57-.38-1.81.588-1.81h8.729a1 1 0 00.95-.69l2.698-8.302zm36 0c.3-.921 1.603-.921 1.902 0l2.697 8.302a1 1 0 00.951.69h8.729c.969 0 1.371 1.24.588 1.81l-7.062 5.13a1 1 0 00-.363 1.118l2.697 8.302c.3.92-.755 1.687-1.539 1.117l-7.061-5.13a1 1 0 00-1.176 0l-7.061 5.13c-.784.57-1.839-.196-1.54-1.117l2.698-8.302a1 1 0 00-.363-1.118l-7.062-5.13c-.784-.57-.38-1.81.588-1.81h8.729a1 1 0 00.95-.69l2.698-8.302zm36 0c.3-.921 1.603-.921 1.902 0l2.697 8.302a1 1 0 00.951.69h8.729c.969 0 1.372 1.24.588 1.81l-7.062 5.13a1 1 0 00-.363 1.118l2.697 8.302c.3.92-.755 1.687-1.539 1.117l-7.061-5.13a1 1 0 00-1.176 0l-7.061 5.13c-.784.57-1.839-.196-1.54-1.117l2.698-8.302a1 1 0 00-.363-1.118l-7.062-5.13c-.784-.57-.38-1.81.588-1.81h8.729a1 1 0 00.95-.69l2.698-8.302zm36 0c.299-.921 1.603-.921 1.902 0l2.697 8.302a1 1 0 00.951.69h8.729c.969 0 1.372 1.24.588 1.81l-7.062 5.13a1 1 0 00-.363 1.118l2.697 8.302c.3.92-.755 1.687-1.539 1.117l-7.061-5.13a1 1 0 00-1.176 0l-7.061 5.13c-.784.57-1.839-.196-1.539-1.117l2.697-8.302a1 1 0 00-.363-1.118l-7.062-5.13c-.784-.57-.381-1.81.588-1.81h8.729a1 1 0 00.951-.69l2.697-8.302zm36 0c.299-.921 1.603-.921 1.902 0l2.697 8.302a1 1 0 00.951.69h8.729c.969 0 1.372 1.24.588 1.81l-7.062 5.13a1 1 0 00-.363 1.118l2.697 8.302c.3.92-.755 1.687-1.539 1.117l-7.061-5.13a1 1 0 00-1.176 0l-7.061 5.13c-.784.57-1.839-.196-1.539-1.117l2.697-8.302a1 1 0 00-.363-1.118l-7.062-5.13c-.784-.57-.381-1.81.588-1.81h8.729a1 1 0 00.951-.69l2.697-8.302z" fill="#FFCC47"/></svg>